<svg width="2878" height="884" viewBox="0 0 2878 884" fill="none" xmlns="http://www.w3.org/2000/svg">
<path d="M451.072 521.485L402.895 638.724C396.773 653.601 407.701 669.908 423.779 669.908H520.133C536.212 669.908 547.14 653.601 541.018 638.724L492.841 521.485C485.174 502.775 458.682 502.775 451.015 521.485H451.072Z" fill="#FA7B4E"/>
<path d="M390.706 464.041L263.512 481.664C247.548 483.896 238.965 501.633 247.148 515.537L295.21 597.243C303.221 610.918 322.503 612.292 332.402 599.875L411.533 500.546C424.236 484.582 410.961 461.238 390.763 464.041H390.706Z" fill="#FA7B4E"/>
<path d="M411.476 383.421L332.344 284.092C322.446 271.676 303.221 273.049 295.153 286.724L247.148 368.43C238.965 382.334 247.548 400.072 263.512 402.303L390.706 419.926C410.904 422.73 424.236 399.442 411.476 383.421Z" fill="#FA7B4E"/>
<path d="M492.898 362.479L541.075 245.241C547.14 230.307 536.212 214 520.133 214H423.779C407.701 214 396.773 230.307 402.895 245.184L451.072 362.422C458.739 381.132 485.231 381.132 492.898 362.422V362.479Z" fill="#FA7B4E"/>
<path d="M553.205 419.925L680.399 402.302C696.363 400.071 704.945 382.334 696.763 368.43L648.701 286.723C640.69 273.048 621.408 271.675 611.509 284.091L532.377 383.478C519.675 399.442 532.95 422.729 553.147 419.925H553.205Z" fill="#FA7B4E"/>
<path d="M532.435 500.487L611.567 599.817C621.465 612.233 640.69 610.86 648.758 597.185L696.821 515.478C705.003 501.575 696.42 483.837 680.456 481.606L553.262 463.983C533.064 461.179 519.733 484.466 532.492 500.487H532.435Z" fill="#FA7B4E"/>
<path d="M2536.05 606.953C2511.71 606.953 2490.59 601.967 2472.69 591.994C2454.8 581.727 2440.87 567.794 2430.89 550.194C2421.21 532.3 2416.38 511.914 2416.38 489.034C2416.38 463.22 2421.51 441.221 2431.77 423.034C2442.33 404.554 2455.97 390.474 2472.69 380.794C2489.41 370.821 2507.16 365.834 2525.93 365.834C2540.31 365.834 2553.95 368.767 2566.85 374.634C2579.76 380.207 2591.2 388.127 2601.17 398.394C2611.44 408.367 2619.51 420.247 2625.37 434.034C2631.24 447.527 2634.32 462.34 2634.61 478.474C2634.32 484.34 2631.97 489.18 2627.57 492.994C2623.17 496.807 2618.04 498.714 2612.17 498.714H2441.01L2430.45 461.314H2595.89L2587.53 469.234V458.234C2586.95 447.967 2583.57 439.021 2577.41 431.394C2571.25 423.474 2563.63 417.461 2554.53 413.354C2545.44 408.954 2535.91 406.754 2525.93 406.754C2517.13 406.754 2508.63 408.221 2500.41 411.154C2492.49 413.794 2485.31 418.194 2478.85 424.354C2472.69 430.514 2467.71 438.727 2463.89 448.994C2460.37 458.967 2458.61 471.434 2458.61 486.394C2458.61 502.527 2461.99 516.607 2468.73 528.634C2475.48 540.66 2484.57 550.047 2496.01 556.794C2507.45 563.247 2520.07 566.474 2533.85 566.474C2544.71 566.474 2553.65 565.447 2560.69 563.394C2567.73 561.047 2573.6 558.26 2578.29 555.034C2582.99 551.807 2587.09 548.727 2590.61 545.794C2595.01 543.154 2599.41 541.834 2603.81 541.834C2609.09 541.834 2613.49 543.74 2617.01 547.554C2620.53 551.074 2622.29 555.327 2622.29 560.314C2622.29 566.767 2619.07 572.634 2612.61 577.914C2604.69 585.54 2593.69 592.287 2579.61 598.154C2565.83 604.02 2551.31 606.953 2536.05 606.953Z" fill="white"/>
<path d="M2351.83 276.954C2358.28 276.954 2363.56 279.007 2367.67 283.114C2371.77 287.221 2373.83 292.647 2373.83 299.394V580.113C2373.83 586.567 2371.77 591.993 2367.67 596.393C2363.56 600.5 2358.28 602.553 2351.83 602.553C2345.67 602.553 2340.39 600.5 2335.99 596.393C2331.88 591.993 2329.83 586.567 2329.83 580.113V548.433L2339.07 548.873C2339.07 554.153 2336.87 560.167 2332.47 566.913C2328.36 573.367 2322.64 579.673 2315.31 585.833C2307.97 591.993 2299.32 597.127 2289.35 601.233C2279.37 605.047 2268.67 606.953 2257.23 606.953C2236.99 606.953 2218.8 601.82 2202.67 591.553C2186.53 580.993 2173.77 566.767 2164.39 548.873C2155 530.687 2150.31 509.86 2150.31 486.393C2150.31 462.927 2155 442.247 2164.39 424.354C2173.77 406.167 2186.39 391.94 2202.23 381.674C2218.36 371.114 2236.25 365.834 2255.91 365.834C2268.23 365.834 2279.67 367.887 2290.23 371.994C2301.08 376.1 2310.47 381.38 2318.39 387.834C2326.31 394.287 2332.47 401.18 2336.87 408.514C2341.27 415.554 2343.47 422.3 2343.47 428.754L2329.83 430.074V299.394C2329.83 292.94 2331.88 287.66 2335.99 283.554C2340.39 279.154 2345.67 276.954 2351.83 276.954ZM2262.07 566.473C2276.15 566.473 2288.32 562.953 2298.59 555.913C2309.15 548.873 2317.36 539.34 2323.23 527.313C2329.09 515.287 2332.03 501.647 2332.03 486.393C2332.03 471.14 2329.09 457.5 2323.23 445.474C2317.36 433.447 2309.15 423.914 2298.59 416.874C2288.03 409.834 2275.85 406.314 2262.07 406.314C2248.57 406.314 2236.55 409.834 2225.99 416.874C2215.72 423.914 2207.51 433.447 2201.35 445.474C2195.48 457.5 2192.55 471.14 2192.55 486.393C2192.55 501.647 2195.48 515.287 2201.35 527.313C2207.51 539.34 2215.72 548.873 2225.99 555.913C2236.55 562.953 2248.57 566.473 2262.07 566.473Z" fill="white"/>
<path d="M2085.76 367.594C2092.21 367.594 2097.49 369.794 2101.6 374.194C2105.7 378.301 2107.76 383.581 2107.76 390.034V580.114C2107.76 586.567 2105.7 591.994 2101.6 596.394C2097.49 600.5 2092.21 602.554 2085.76 602.554C2079.6 602.554 2074.32 600.5 2069.92 596.394C2065.81 591.994 2063.76 586.567 2063.76 580.114V548.434L2073 549.754C2073 555.034 2070.8 560.9 2066.4 567.354C2062.29 573.807 2056.57 580.114 2049.24 586.274C2041.9 592.14 2033.25 597.127 2023.28 601.234C2013.3 605.047 2002.6 606.953 1991.16 606.953C1970.92 606.953 1952.73 601.82 1936.6 591.554C1920.46 580.994 1907.7 566.62 1898.32 548.434C1888.93 530.247 1884.24 509.567 1884.24 486.394C1884.24 462.634 1888.93 441.807 1898.32 423.914C1907.7 405.727 1920.32 391.501 1936.16 381.234C1952.29 370.967 1970.18 365.834 1989.84 365.834C2002.45 365.834 2014.04 367.887 2024.6 371.994C2035.45 376.101 2044.84 381.381 2052.76 387.834C2060.68 394.287 2066.69 401.181 2070.8 408.514C2075.2 415.554 2077.4 422.301 2077.4 428.754L2063.76 430.074V390.034C2063.76 383.874 2065.81 378.594 2069.92 374.194C2074.32 369.794 2079.6 367.594 2085.76 367.594ZM1996 566.474C2009.78 566.474 2021.96 562.954 2032.52 555.914C2043.08 548.874 2051.29 539.34 2057.16 527.314C2063.02 514.994 2065.96 501.354 2065.96 486.394C2065.96 471.14 2063.02 457.5 2057.16 445.474C2051.29 433.447 2043.08 423.914 2032.52 416.874C2021.96 409.834 2009.78 406.314 1996 406.314C1982.5 406.314 1970.48 409.834 1959.92 416.874C1949.65 423.914 1941.44 433.447 1935.28 445.474C1929.41 457.5 1926.48 471.14 1926.48 486.394C1926.48 501.354 1929.41 514.994 1935.28 527.314C1941.44 539.34 1949.65 548.874 1959.92 555.914C1970.48 562.954 1982.5 566.474 1996 566.474Z" fill="white"/>
<path d="M1746.58 602.554C1740.13 602.554 1734.85 600.5 1730.74 596.394C1726.64 591.994 1724.58 586.567 1724.58 580.114V393.554C1724.58 387.101 1726.64 381.821 1730.74 377.714C1734.85 373.314 1740.13 371.114 1746.58 371.114C1752.74 371.114 1757.88 373.314 1761.98 377.714C1766.38 381.821 1768.58 387.101 1768.58 393.554V442.834L1764.18 423.914C1766.53 415.701 1770.05 408.074 1774.74 401.034C1779.73 393.994 1785.6 387.834 1792.34 382.554C1799.09 377.274 1806.57 373.167 1814.78 370.234C1823.29 367.301 1832.09 365.834 1841.18 365.834C1848.81 365.834 1855.41 367.887 1860.98 371.994C1866.56 376.101 1869.34 381.234 1869.34 387.394C1869.34 395.314 1867.29 401.181 1863.18 404.994C1859.08 408.514 1854.53 410.274 1849.54 410.274C1845.14 410.274 1840.89 409.394 1836.78 407.634C1832.68 405.581 1827.84 404.554 1822.26 404.554C1816.1 404.554 1809.8 406.167 1803.34 409.394C1796.89 412.621 1791.02 417.461 1785.74 423.914C1780.46 430.074 1776.21 437.407 1772.98 445.914C1770.05 454.42 1768.58 463.954 1768.58 474.514V580.114C1768.58 586.567 1766.38 591.994 1761.98 596.394C1757.88 600.5 1752.74 602.554 1746.58 602.554Z" fill="white"/>
<path d="M1590.75 602.552C1583.71 602.552 1577.99 600.499 1573.59 596.392C1569.48 591.992 1567.43 586.566 1567.43 580.112V316.553H1614.51V580.112C1614.51 586.566 1612.16 591.992 1607.47 596.392C1603.07 600.499 1597.49 602.552 1590.75 602.552ZM1490.87 336.793C1484.71 336.793 1479.43 334.886 1475.03 331.073C1470.63 326.966 1468.43 321.686 1468.43 315.233C1468.43 309.073 1470.63 304.086 1475.03 300.273C1479.43 296.459 1484.71 294.553 1490.87 294.553H1691.07C1697.23 294.553 1702.36 296.606 1706.47 300.713C1710.87 304.526 1713.07 309.513 1713.07 315.673C1713.07 322.126 1710.87 327.259 1706.47 331.073C1702.36 334.886 1697.23 336.793 1691.07 336.793H1490.87Z" fill="white"/>
<path d="M1158.72 294.115C1162.24 294.115 1165.91 294.994 1169.72 296.754C1173.54 298.514 1176.47 301.008 1178.52 304.234L1290.28 474.514L1271.36 473.634L1385.32 304.234C1390.02 297.488 1396.03 294.115 1403.36 294.115C1409.23 294.115 1414.36 296.314 1418.76 300.714C1423.46 304.821 1425.8 310.101 1425.8 316.554V580.114C1425.8 586.567 1423.75 591.994 1419.64 596.394C1415.54 600.501 1410.11 602.554 1403.36 602.554C1396.32 602.554 1390.6 600.501 1386.2 596.394C1382.1 591.994 1380.04 586.567 1380.04 580.114V357.034L1394.12 360.114L1297.32 507.514C1295.27 510.154 1292.63 512.501 1289.4 514.554C1286.18 516.314 1282.8 517.047 1279.28 516.754C1276.06 517.047 1272.68 516.314 1269.16 514.554C1265.94 512.501 1263.3 510.154 1261.24 507.514L1167.96 362.314L1178.52 344.714V580.114C1178.52 586.567 1176.47 591.994 1172.36 596.394C1168.55 600.501 1163.42 602.554 1156.96 602.554C1150.8 602.554 1145.67 600.501 1141.56 596.394C1137.75 591.994 1135.84 586.567 1135.84 580.114V316.554C1135.84 310.394 1138.04 305.114 1142.44 300.714C1147.14 296.314 1152.56 294.115 1158.72 294.115Z" fill="white"/>
<path d="M979.688 606.954C957.395 606.954 936.569 602.994 917.209 595.074C897.849 586.861 880.835 575.567 866.169 561.194C851.795 546.527 840.502 529.661 832.289 510.594C824.075 491.527 819.969 470.848 819.969 448.554C819.969 426.261 824.075 405.581 832.289 386.514C840.502 367.448 851.795 350.728 866.169 336.354C880.835 321.688 897.849 310.395 917.209 302.475C936.569 294.261 957.395 290.155 979.688 290.155C994.062 290.155 1008 291.768 1021.49 294.995C1034.98 298.221 1047.15 302.915 1058.01 309.074C1061.82 311.128 1064.61 313.915 1066.37 317.435C1068.13 320.661 1069.01 323.888 1069.01 327.114C1069.01 333.274 1066.95 338.701 1062.85 343.394C1059.03 347.794 1054.19 349.994 1048.33 349.994C1046.27 349.994 1044.07 349.701 1041.73 349.114C1039.67 348.528 1037.77 347.794 1036.01 346.914C1027.8 342.808 1019 339.728 1009.61 337.674C1000.22 335.328 990.248 334.154 979.688 334.154C958.568 334.154 939.502 339.288 922.489 349.554C905.475 359.528 891.982 373.168 882.009 390.474C872.329 407.781 867.489 427.141 867.489 448.554C867.489 469.674 872.329 489.034 882.009 506.634C891.982 523.941 905.475 537.727 922.489 547.994C939.502 557.967 958.568 562.954 979.688 562.954C989.955 562.954 1000.81 561.781 1012.25 559.434C1023.69 556.794 1033.37 553.421 1041.29 549.314L1037.77 561.194V477.594L1044.81 483.754H987.168C980.715 483.754 975.288 481.701 970.888 477.594C966.782 473.488 964.728 468.208 964.728 461.754C964.728 455.301 966.782 450.021 970.888 445.914C975.288 441.808 980.715 439.754 987.168 439.754H1063.29C1069.45 439.754 1074.58 441.954 1078.69 446.354C1083.09 450.461 1085.29 455.741 1085.29 462.194V559.874C1085.29 564.567 1084.11 568.527 1081.77 571.754C1079.42 574.981 1076.78 577.621 1073.85 579.674C1060.65 587.887 1045.98 594.487 1029.85 599.474C1014.01 604.461 997.288 606.954 979.688 606.954Z" fill="white"/>
</svg>
