<svg width="884" height="884" viewBox="0 0 884 884" fill="none" xmlns="http://www.w3.org/2000/svg">
<rect width="884" height="884" fill="white"/>
<path d="M413.686 549.591L348.503 708.262C340.225 728.389 355.042 750.487 376.793 750.487H507.136C528.91 750.487 543.704 728.412 535.426 708.262L470.243 549.591C459.855 524.293 424.028 524.293 413.64 549.591H413.686Z" fill="#FA7B4E"/>
<path d="M332.039 471.868L159.934 495.728C138.322 498.719 126.705 522.718 137.766 541.547L202.786 652.127C213.662 670.631 239.726 672.463 253.082 655.675L360.167 521.234C377.373 499.624 359.402 468.089 332.039 471.868Z" fill="#FA7B4E"/>
<path d="M360.167 362.793L253.082 228.352C239.702 211.564 213.662 213.396 202.786 231.9L137.766 342.48C126.705 361.285 138.322 385.284 159.934 388.299L332.039 412.159C359.402 415.961 377.373 384.403 360.167 362.793Z" fill="#FA7B4E"/>
<path d="M470.289 334.411L535.472 175.739C543.75 155.612 528.933 133.515 507.182 133.515H376.839C355.065 133.515 340.271 155.589 348.549 175.739L413.732 334.411C424.121 359.708 459.947 359.708 470.336 334.411H470.289Z" fill="#FA7B4E"/>
<path d="M551.961 412.158L724.066 388.298C745.678 385.307 757.296 361.308 746.235 342.479L681.214 231.899C670.339 213.395 644.275 211.563 630.918 228.351L523.833 362.792C506.627 384.402 524.599 415.937 551.961 412.158Z" fill="#FA7B4E"/>
<path d="M523.812 521.238L630.897 655.679C644.276 672.466 670.317 670.634 681.192 652.131L746.213 541.55C757.274 522.745 745.657 498.746 724.045 495.732L551.94 471.872C524.577 468.069 506.606 499.627 523.812 521.238Z" fill="#FA7B4E"/>
</svg>
