<svg width="724" height="724" viewBox="0 0 724 724" fill="none" xmlns="http://www.w3.org/2000/svg">
<path d="M328.774 488.255L252.283 674.453C242.569 698.071 259.957 724.002 285.481 724.002H438.435C463.986 724.002 481.347 698.098 471.633 674.453L395.142 488.255C382.951 458.569 340.91 458.569 328.719 488.255H328.774Z" fill="white"/>
<path d="M232.963 397.05L31.0014 425.049C5.64061 428.559 -7.99219 456.721 4.98754 478.816L81.2877 608.58C94.0497 630.293 124.635 632.443 140.309 612.743L265.97 454.98C286.161 429.62 265.072 392.615 232.963 397.05Z" fill="white"/>
<path d="M265.97 269.052L140.309 111.289C124.608 91.5889 94.0497 93.7385 81.2877 115.452L4.98754 245.216C-7.99219 267.283 5.64061 295.446 31.0014 298.983L232.963 326.982C265.072 331.444 286.161 294.412 265.97 269.052Z" fill="white"/>
<path d="M395.195 235.746L471.686 49.5489C481.4 25.9307 464.012 -0.000335693 438.488 -0.000335693H285.534C259.983 -0.000335693 242.622 25.9035 252.336 49.5489L328.827 235.746C341.018 265.433 383.059 265.433 395.25 235.746H395.195Z" fill="white"/>
<path d="M491.035 326.981L692.997 298.982C718.357 295.472 731.99 267.309 719.011 245.215L642.71 115.451C629.948 93.7374 599.363 91.5878 583.689 111.288L458.028 269.051C437.837 294.411 458.926 331.416 491.035 326.981Z" fill="white"/>
<path d="M458.003 454.984L583.664 612.747C599.365 632.447 629.923 630.297 642.685 608.584L718.985 478.82C731.965 456.753 718.332 428.59 692.971 425.053L491.01 397.054C458.901 392.592 437.812 429.624 458.003 454.984Z" fill="white"/>
</svg>
