<svg width="2878" height="884" viewBox="0 0 2878 884" fill="none" xmlns="http://www.w3.org/2000/svg">
<path d="M2477.91 654C2446.63 654 2419.5 647.593 2396.51 634.779C2373.51 621.588 2355.61 603.685 2342.8 581.072C2330.36 558.082 2324.14 531.888 2324.14 502.491C2324.14 469.325 2330.74 441.058 2343.93 417.691C2357.5 393.947 2375.02 375.856 2396.51 363.419C2417.99 350.605 2440.79 344.198 2464.91 344.198C2483.38 344.198 2500.9 347.966 2517.49 355.504C2534.07 362.665 2548.77 372.841 2561.58 386.032C2574.77 398.846 2585.14 414.11 2592.68 431.824C2600.21 449.161 2604.17 468.194 2604.55 488.923C2604.17 496.461 2601.16 502.679 2595.5 507.579C2589.85 512.478 2583.25 514.928 2575.72 514.928H2355.8L2342.23 466.875H2554.8L2544.06 477.051V462.917C2543.3 449.726 2538.97 438.231 2531.05 428.432C2523.14 418.256 2513.34 410.53 2501.66 405.254C2489.97 399.6 2477.72 396.773 2464.91 396.773C2453.6 396.773 2442.67 398.658 2432.12 402.427C2421.95 405.819 2412.71 411.472 2404.42 419.387C2396.51 427.301 2390.1 437.854 2385.2 451.045C2380.68 463.86 2378.41 479.877 2378.41 499.099C2378.41 519.828 2382.75 537.918 2391.42 553.371C2400.09 568.823 2411.77 580.884 2426.47 589.552C2441.17 597.844 2457.37 601.989 2475.09 601.989C2489.03 601.989 2500.53 600.67 2509.57 598.032C2518.62 595.017 2526.15 591.437 2532.19 587.291C2538.22 583.145 2543.49 579.188 2548.01 575.419C2553.67 572.027 2559.32 570.331 2564.97 570.331C2571.76 570.331 2577.41 572.781 2581.93 577.68C2586.46 582.203 2588.72 587.668 2588.72 594.075C2588.72 602.366 2584.57 609.904 2576.28 616.688C2566.11 626.487 2551.97 635.156 2533.88 642.693C2516.17 650.231 2497.51 654 2477.91 654Z" fill="white"/>
<path d="M2241.21 230C2249.5 230 2256.28 232.638 2261.56 237.915C2266.84 243.191 2269.47 250.164 2269.47 258.832V619.514C2269.47 627.806 2266.84 634.778 2261.56 640.432C2256.28 645.708 2249.5 648.346 2241.21 648.346C2233.29 648.346 2226.51 645.708 2220.86 640.432C2215.58 634.778 2212.94 627.806 2212.94 619.514V578.81L2224.81 579.376C2224.81 586.16 2221.99 593.886 2216.33 602.554C2211.06 610.846 2203.71 618.949 2194.29 626.864C2184.86 634.778 2173.74 641.374 2160.93 646.65C2148.12 651.55 2134.36 654 2119.66 654C2093.66 654 2070.29 647.404 2049.56 634.213C2028.83 620.645 2012.44 602.366 2000.38 579.376C1988.32 556.009 1982.29 529.25 1982.29 499.099C1982.29 468.947 1988.32 442.377 2000.38 419.387C2012.44 396.019 2028.64 377.74 2048.99 364.549C2069.72 350.981 2092.71 344.197 2117.97 344.197C2133.79 344.197 2148.49 346.835 2162.06 352.112C2176.01 357.388 2188.07 364.172 2198.24 372.464C2208.42 380.755 2216.33 389.612 2221.99 399.035C2227.64 408.08 2230.47 416.748 2230.47 425.04L2212.94 426.736V258.832C2212.94 250.54 2215.58 243.756 2220.86 238.48C2226.51 232.827 2233.29 230 2241.21 230ZM2125.88 601.989C2143.97 601.989 2159.61 597.466 2172.8 588.421C2186.37 579.376 2196.92 567.127 2204.46 551.674C2212 536.222 2215.77 518.697 2215.77 499.099C2215.77 479.5 2212 461.975 2204.46 446.523C2196.92 431.07 2186.37 418.821 2172.8 409.776C2159.23 400.731 2143.59 396.208 2125.88 396.208C2108.54 396.208 2093.09 400.731 2079.52 409.776C2066.33 418.821 2055.78 431.07 2047.86 446.523C2040.33 461.975 2036.56 479.5 2036.56 499.099C2036.56 518.697 2040.33 536.222 2047.86 551.674C2055.78 567.127 2066.33 579.376 2079.52 588.421C2093.09 597.466 2108.54 601.989 2125.88 601.989Z" fill="white"/>
<path d="M1899.35 346.459C1907.64 346.459 1914.43 349.286 1919.7 354.939C1924.98 360.215 1927.62 366.999 1927.62 375.291V619.515C1927.62 627.806 1924.98 634.779 1919.7 640.432C1914.43 645.708 1907.64 648.347 1899.35 648.347C1891.44 648.347 1884.65 645.708 1879 640.432C1873.72 634.779 1871.08 627.806 1871.08 619.515V578.811L1882.96 580.507C1882.96 587.291 1880.13 594.829 1874.48 603.12C1869.2 611.412 1861.85 619.515 1852.43 627.429C1843.01 634.967 1831.89 641.374 1819.07 646.651C1806.26 651.55 1792.5 654 1777.8 654C1751.8 654 1728.43 647.404 1707.7 634.213C1686.97 620.645 1670.58 602.178 1658.52 578.811C1646.46 555.444 1640.43 528.873 1640.43 499.099C1640.43 468.571 1646.46 441.812 1658.52 418.821C1670.58 395.454 1686.79 377.175 1707.14 363.984C1727.87 350.793 1750.86 344.198 1776.11 344.198C1792.31 344.198 1807.2 346.836 1820.77 352.112C1834.71 357.389 1846.77 364.173 1856.95 372.464C1867.13 380.756 1874.85 389.613 1880.13 399.035C1885.78 408.08 1888.61 416.749 1888.61 425.04L1871.08 426.736V375.291C1871.08 367.376 1873.72 360.592 1879 354.939C1884.65 349.286 1891.44 346.459 1899.35 346.459ZM1784.02 601.989C1801.74 601.989 1817.38 597.467 1830.95 588.421C1844.51 579.376 1855.07 567.127 1862.6 551.675C1870.14 535.845 1873.91 518.32 1873.91 499.099C1873.91 479.501 1870.14 461.975 1862.6 446.523C1855.07 431.07 1844.51 418.821 1830.95 409.776C1817.38 400.731 1801.74 396.208 1784.02 396.208C1766.69 396.208 1751.23 400.731 1737.67 409.776C1724.47 418.821 1713.92 431.07 1706.01 446.523C1698.47 461.975 1694.7 479.501 1694.7 499.099C1694.7 518.32 1698.47 535.845 1706.01 551.675C1713.92 567.127 1724.47 579.376 1737.67 588.421C1751.23 597.467 1766.69 601.989 1784.02 601.989Z" fill="white"/>
<path d="M1463.56 648.347C1455.27 648.347 1448.48 645.709 1443.21 640.432C1437.93 634.779 1435.29 627.806 1435.29 619.515V379.814C1435.29 371.522 1437.93 364.738 1443.21 359.462C1448.48 353.808 1455.27 350.982 1463.56 350.982C1471.47 350.982 1478.07 353.808 1483.35 359.462C1489 364.738 1491.83 371.522 1491.83 379.814V443.131L1486.17 418.821C1489.19 408.269 1493.71 398.47 1499.74 389.424C1506.15 380.379 1513.69 372.464 1522.35 365.68C1531.02 358.896 1540.63 353.62 1551.19 349.851C1562.12 346.082 1573.42 344.198 1585.11 344.198C1594.91 344.198 1603.39 346.836 1610.55 352.112C1617.71 357.389 1621.29 363.984 1621.29 371.899C1621.29 382.075 1618.65 389.613 1613.37 394.512C1608.1 399.035 1602.25 401.296 1595.85 401.296C1590.19 401.296 1584.73 400.166 1579.45 397.904C1574.18 395.266 1567.96 393.947 1560.8 393.947C1552.88 393.947 1544.78 396.02 1536.49 400.166C1528.2 404.311 1520.66 410.53 1513.87 418.821C1507.09 426.736 1501.63 436.158 1497.48 447.088C1493.71 458.018 1491.83 470.267 1491.83 483.835V619.515C1491.83 627.806 1489 634.779 1483.35 640.432C1478.07 645.709 1471.47 648.347 1463.56 648.347Z" fill="white"/>
<path d="M1263.33 648.345C1254.29 648.345 1246.94 645.707 1241.29 640.43C1236.01 634.777 1233.37 627.804 1233.37 619.513V280.878H1293.86V619.513C1293.86 627.804 1290.85 634.777 1284.82 640.43C1279.16 645.707 1272 648.345 1263.33 648.345ZM1135 306.884C1127.09 306.884 1120.31 304.434 1114.65 299.534C1109 294.258 1106.17 287.474 1106.17 279.182C1106.17 271.268 1109 264.861 1114.65 259.961C1120.31 255.061 1127.09 252.612 1135 252.612H1392.23C1400.15 252.612 1406.74 255.25 1412.02 260.526C1417.67 265.426 1420.5 271.833 1420.5 279.748C1420.5 288.039 1417.67 294.635 1412.02 299.534C1406.74 304.434 1400.15 306.884 1392.23 306.884H1135Z" fill="white"/>
<path d="M708.249 252.049C712.772 252.049 717.483 253.179 722.382 255.441C727.282 257.702 731.051 260.906 733.689 265.051L877.283 483.835L852.974 482.705L999.395 265.051C1005.43 256.383 1013.15 252.049 1022.57 252.049C1030.11 252.049 1036.71 254.875 1042.36 260.529C1048.39 265.805 1051.41 272.589 1051.41 280.881V619.515C1051.41 627.807 1048.77 634.779 1043.49 640.433C1038.21 645.709 1031.24 648.347 1022.57 648.347C1013.53 648.347 1006.18 645.709 1000.53 640.433C995.25 634.779 992.611 627.807 992.611 619.515V332.891L1010.7 336.849L886.329 526.235C883.691 529.627 880.299 532.642 876.153 535.281C872.007 537.542 867.673 538.484 863.15 538.107C859.004 538.484 854.67 537.542 850.147 535.281C846.002 532.642 842.61 529.627 839.971 526.235L720.121 339.675L733.689 317.062V619.515C733.689 627.807 731.051 634.779 725.774 640.433C720.875 645.709 714.279 648.347 705.988 648.347C698.073 648.347 691.477 645.709 686.201 640.433C681.301 634.779 678.852 627.807 678.852 619.515V280.881C678.852 272.966 681.678 266.182 687.332 260.529C693.362 254.875 700.334 252.049 708.249 252.049Z" fill="white"/>
<path d="M478.216 654.001C449.572 654.001 422.813 648.913 397.939 638.737C373.064 628.184 351.204 613.674 332.36 595.206C313.892 576.362 299.382 554.69 288.829 530.193C278.276 505.695 273 479.124 273 450.481C273 421.837 278.276 395.267 288.829 370.769C299.382 346.271 313.892 324.788 332.36 306.321C351.204 287.476 373.064 272.966 397.939 262.79C422.813 252.237 449.572 246.961 478.216 246.961C496.683 246.961 514.586 249.034 531.923 253.179C549.259 257.325 564.9 263.355 578.845 271.27C583.745 273.908 587.325 277.489 589.587 282.011C591.848 286.157 592.979 290.303 592.979 294.449C592.979 302.363 590.34 309.336 585.064 315.366C580.164 321.019 573.946 323.846 566.408 323.846C563.77 323.846 560.943 323.469 557.928 322.715C555.29 321.962 552.84 321.019 550.579 319.889C540.026 314.612 528.719 310.655 516.659 308.017C504.598 305.002 491.784 303.494 478.216 303.494C451.08 303.494 426.582 310.09 404.723 323.281C382.863 336.095 365.526 353.62 352.712 375.857C340.275 398.093 334.056 422.968 334.056 450.481C334.056 477.617 340.275 502.491 352.712 525.105C365.526 547.341 382.863 565.055 404.723 578.246C426.582 591.06 451.08 597.467 478.216 597.467C491.407 597.467 505.352 595.96 520.051 592.945C534.749 589.553 547.187 585.218 557.363 579.942L552.84 595.206V487.793L561.885 495.707H487.827C479.535 495.707 472.563 493.069 466.909 487.793C461.633 482.516 458.995 475.732 458.995 467.441C458.995 459.149 461.633 452.365 466.909 447.089C472.563 441.812 479.535 439.174 487.827 439.174H585.629C593.544 439.174 600.139 442.001 605.416 447.654C611.069 452.931 613.896 459.715 613.896 468.006V593.51C613.896 599.54 612.388 604.628 609.373 608.774C606.358 612.92 602.966 616.312 599.197 618.95C582.237 629.503 563.393 637.983 542.664 644.39C522.312 650.797 500.829 654.001 478.216 654.001Z" fill="white"/>
</svg>
